<svg width="400" height="400" viewBox="0 0 400 400" xmlns="http://www.w3.org/2000/svg">
  <defs>
    <pattern id="school-pattern" x="0" y="0" width="400" height="400" patternUnits="userSpaceOnUse">
      <rect width="400" height="400" fill="#f5f5f5"/>
      <g fill="none" stroke="#e5e5e5" stroke-width="2">
        <!-- Book -->
        <path d="M50 50 L90 50 L90 90 L50 90 Z M50 90 L40 80 L80 80 L90 90" transform="translate(20, 20)"/>
        <!-- Pencil -->
        <path d="M150 60 L170 40 L180 50 L160 70 Z M150 60 L145 75 L160 70" transform="translate(10, 0)"/>
        <!-- Backpack -->
        <path d="M250 100 C250 80 290 80 290 100 V150 H250 V100 Z M250 120 H290" transform="translate(0, 20)"/>
        <!-- Trophy -->
        <path d="M150 200 L150 230 M170 200 L170 230 M140 200 H180 L175 240 H145 Z M130 210 C120 210 120 230 140 230 M190 210 C200 210 200 230 180 230" transform="translate(20, 0)"/>
        <!-- Flask -->
        <path d="M300 250 L310 230 V210 H330 V230 L340 250 H300" transform="translate(0, 0)"/>
        <!-- Scissors -->
        <path d="M80 300 L100 320 M100 300 L80 320 M70 290 A10 10 0 1 0 80 300 M110 290 A10 10 0 1 0 100 300" transform="translate(0, 0)"/>
        <!-- 1 2 3 -->
        <text x="350" y="80" font-family="Arial" font-size="40" stroke="none" fill="#e5e5e5" font-weight="bold">1</text>
        <text x="50" y="200" font-family="Arial" font-size="40" stroke="none" fill="#e5e5e5" font-weight="bold">2</text>
        <text x="250" y="350" font-family="Arial" font-size="40" stroke="none" fill="#e5e5e5" font-weight="bold">3</text>
        <!-- Bulb -->
        <path d="M200 120 C190 120 190 140 200 150 L205 160 H215 L220 150 C230 140 230 120 220 120 Z" transform="translate(-20, 0)"/>
      </g>
    </pattern>
  </defs>
  <rect width="100%" height="100%" fill="url(#school-pattern)"/>
</svg>